<?xml version="1.0" encoding="UTF-8" standalone="no"?>
<!-- Created with Inkscape (http://www.inkscape.org/) -->

<svg
   xmlns:dc="http://purl.org/dc/elements/1.1/"
   xmlns:cc="http://creativecommons.org/ns#"
   xmlns:rdf="http://www.w3.org/1999/02/22-rdf-syntax-ns#"
   xmlns:svg="http://www.w3.org/2000/svg"
   xmlns="http://www.w3.org/2000/svg"
   xmlns:xlink="http://www.w3.org/1999/xlink"
   xmlns:sodipodi="http://sodipodi.sourceforge.net/DTD/sodipodi-0.dtd"
   xmlns:inkscape="http://www.inkscape.org/namespaces/inkscape"
   id="svg8"
   version="1.1"
   viewBox="0 0 140 140"
   height="140"
   width="140"
   inkscape:export-filename="./icon.png"
   inkscape:export-xdpi="96"
   inkscape:export-ydpi="96"
   sodipodi:docname="icon.svg"
   inkscape:version="0.92.3 (2405546, 2018-03-11)">
  <sodipodi:namedview
     inkscape:window-maximized="1"
     inkscape:window-y="28"
     inkscape:window-x="0"
     inkscape:window-height="1024"
     inkscape:window-width="1920"
     inkscape:snap-to-guides="true"
     inkscape:snap-page="true"
     inkscape:snap-object-midpoints="true"
     inkscape:snap-others="false"
     inkscape:lockguides="false"
     inkscape:guide-bbox="true"
     showguides="true"
     units="px"
     showgrid="false"
     inkscape:current-layer="layer2"
     inkscape:document-units="px"
     inkscape:cy="52.796571"
     inkscape:cx="44.18838"
     inkscape:zoom="4"
     inkscape:pageshadow="2"
     inkscape:pageopacity="0.0"
     borderopacity="1.0"
     bordercolor="#666666"
     pagecolor="#ffffff"
     id="base">
    <sodipodi:guide
       inkscape:color="rgb(0,0,255)"
       inkscape:label=""
       inkscape:locked="false"
       id="guide856"
       orientation="1,0"
       position="20,155.71926" />
    <sodipodi:guide
       inkscape:color="rgb(0,0,255)"
       inkscape:label=""
       inkscape:locked="false"
       id="guide858"
       orientation="1,0"
       position="120,136.88402" />
    <sodipodi:guide
       inkscape:color="rgb(0,0,255)"
       inkscape:label=""
       inkscape:locked="false"
       id="guide860"
       orientation="0,1"
       position="61.105027,115" />
    <sodipodi:guide
       inkscape:color="rgb(0,0,255)"
       inkscape:label=""
       inkscape:locked="false"
       id="guide862"
       orientation="0,1"
       position="104.25087,25" />
  </sodipodi:namedview>
  <defs
     id="defs2">
    <linearGradient
       inkscape:collect="always"
       id="linearGradient1472">
      <stop
         style="stop-color:#000000;stop-opacity:1;"
         offset="0"
         id="stop1468" />
      <stop
         style="stop-color:#000000;stop-opacity:0;"
         offset="1"
         id="stop1470" />
    </linearGradient>
    <clipPath
       clipPathUnits="userSpaceOnUse"
       id="clipPath15265">
      <rect
         ry="7.9449983"
         y="-6.6868429"
         x="-9.588562"
         height="156.13716"
         width="156.13716"
         id="rect15267"
         style="fill:#da413b;fill-opacity:1;stroke-width:1.11526537" />
    </clipPath>
    <clipPath
       clipPathUnits="userSpaceOnUse"
       id="clipPath15269">
      <rect
         ry="7.9449983"
         y="-6.6868429"
         x="-9.588562"
         height="156.13716"
         width="156.13716"
         id="rect15271"
         style="fill:#da413b;fill-opacity:1;stroke-width:1.11526537" />
    </clipPath>
    <clipPath
       clipPathUnits="userSpaceOnUse"
       id="clipPath15273">
      <rect
         ry="7.1238632"
         y="-7.0117189e-06"
         x="0"
         height="140"
         width="140"
         id="rect15275"
         style="fill:#da413b;fill-opacity:1" />
    </clipPath>
    <linearGradient
       inkscape:collect="always"
       xlink:href="#linearGradient1472"
       id="linearGradient1474"
       x1="74.955429"
       y1="69.380829"
       x2="-56.99091"
       y2="201.32716"
       gradientUnits="userSpaceOnUse"
       gradientTransform="translate(2.482521)" />
    <clipPath
       clipPathUnits="userSpaceOnUse"
       id="clipPath1488">
      <rect
         style="fill:#da413b;fill-opacity:1"
         id="rect1490"
         width="140"
         height="140"
         x="0"
         y="-7.0117189e-06"
         ry="7.1238632" />
    </clipPath>
    <clipPath
       clipPathUnits="userSpaceOnUse"
       id="clipPath1492">
      <rect
         style="fill:#da413b;fill-opacity:1"
         id="rect1494"
         width="140"
         height="140"
         x="0"
         y="-7.0117189e-06"
         ry="7.1238632" />
    </clipPath>
  </defs>
  <metadata
     id="metadata5">
    <rdf:RDF>
      <cc:Work
         rdf:about="">
        <dc:format>image/svg+xml</dc:format>
        <dc:type
           rdf:resource="http://purl.org/dc/dcmitype/StillImage" />
        <dc:title></dc:title>
      </cc:Work>
    </rdf:RDF>
  </metadata>
  <g
     transform="translate(0,-259.95832)"
     id="layer1"
     inkscape:groupmode="layer"
     inkscape:label="Background">
    <rect
       ry="7.1238632"
       y="259.95831"
       x="0"
       height="140"
       width="140"
       id="rect815"
       style="fill:#cd4d48;fill-opacity:1"
       inkscape:export-filename="./rect815.png"
       inkscape:export-xdpi="299"
       inkscape:export-ydpi="299" />
  </g>
  <g
     inkscape:label="Icon"
     id="layer2"
     inkscape:groupmode="layer">
    <path
       style="font-style:normal;font-variant:normal;font-weight:900;font-stretch:normal;font-size:72.56623077px;line-height:0;font-family:'Font Awesome 5 Free';-inkscape-font-specification:'Font Awesome 5 Free, Heavy';font-variant-ligatures:normal;font-variant-caps:normal;font-variant-numeric:normal;font-feature-settings:normal;text-align:start;letter-spacing:0px;word-spacing:0px;writing-mode:lr-tb;text-anchor:start;opacity:0.26964286;fill:url(#linearGradient1474);fill-opacity:1;stroke:none;stroke-width:2.36143279"
       d="m 57.703224,27.488281 c -1.38877,0.05707 -2.577146,0.579099 -3.566406,1.56836 -0.0076,0.0076 -0.01396,0.01584 -0.02148,0.02344 -0.0076,0.0076 -0.01581,0.01386 -0.02344,0.02148 -0.01557,0.01557 -0.02762,0.03315 -0.04297,0.04883 -0.0093,0.0092 -0.02,0.01609 -0.0293,0.02539 -0.01453,0.01453 -0.02667,0.03029 -0.04102,0.04492 -0.02045,0.01989 -0.04222,0.03636 -0.0625,0.05664 -0.02241,0.02241 -0.04053,0.04766 -0.0625,0.07031 -0.02283,0.02213 -0.04769,0.03988 -0.07031,0.0625 -0.02748,0.02748 -0.04935,0.05809 -0.07617,0.08594 -0.02779,0.02677 -0.05845,0.04869 -0.08594,0.07617 -0.03242,0.03242 -0.0603,0.06669 -0.0918,0.09961 -0.03285,0.03142 -0.06719,0.05937 -0.09961,0.0918 -0.03972,0.03972 -0.07301,0.08258 -0.111328,0.123047 -0.03533,0.03368 -0.07259,0.06282 -0.107422,0.09766 -0.04227,0.04227 -0.07846,0.08774 -0.119141,0.130859 -0.0432,0.04075 -0.0884,0.07668 -0.130859,0.119141 -0.04722,0.04722 -0.08756,0.0982 -0.132813,0.146484 -0.04836,0.0453 -0.09904,0.08537 -0.146484,0.132813 -0.05052,0.05052 -0.09432,0.104517 -0.142578,0.15625 -0.05548,0.05147 -0.113692,0.09807 -0.167969,0.152344 -0.05859,0.05859 -0.108513,0.12142 -0.164063,0.18164 -0.05735,0.05307 -0.117758,0.100181 -0.173828,0.15625 -0.06255,0.06255 -0.116693,0.128948 -0.175781,0.19336 -0.06376,0.0585 -0.129228,0.11165 -0.191406,0.173828 -0.06735,0.06735 -0.126114,0.139472 -0.189453,0.208984 -0.06919,0.06302 -0.139696,0.122117 -0.207032,0.189453 -0.07066,0.07066 -0.132973,0.145711 -0.199218,0.21875 -0.07603,0.06862 -0.15471,0.133225 -0.228516,0.207031 -0.07745,0.07746 -0.144649,0.159923 -0.216797,0.240235 -0.07959,0.07148 -0.161127,0.137689 -0.238281,0.214844 -0.08156,0.08156 -0.152837,0.169175 -0.228516,0.253906 -0.08575,0.07639 -0.172919,0.149482 -0.255859,0.232422 -0.08585,0.08585 -0.162858,0.176267 -0.242188,0.265625 -0.092,0.08127 -0.184656,0.159266 -0.273437,0.248047 -0.09113,0.09113 -0.172075,0.188117 -0.255859,0.283203 -0.09676,0.08494 -0.193893,0.168501 -0.28711,0.261718 -0.09608,0.09608 -0.183572,0.196402 -0.271484,0.296876 -0.102371,0.08919 -0.204318,0.176973 -0.302735,0.27539 -0.104419,0.104419 -0.200146,0.214607 -0.294921,0.324219 -0.103916,0.09035 -0.208749,0.179451 -0.308594,0.279297 -0.107235,0.107234 -0.203718,0.21932 -0.300782,0.332031 -0.111928,0.09628 -0.224796,0.193547 -0.332031,0.300781 -0.112863,0.112864 -0.214809,0.230679 -0.316406,0.34961 -0.116542,0.09963 -0.232281,0.20103 -0.34375,0.3125 -0.116566,0.116566 -0.223577,0.23829 -0.328125,0.361328 -0.123379,0.104521 -0.245559,0.210403 -0.363281,0.328125 -0.121885,0.121885 -0.235005,0.249945 -0.34375,0.378906 -0.128479,0.108103 -0.254587,0.219431 -0.376953,0.341797 -0.126831,0.126831 -0.24482,0.260039 -0.357422,0.394531 -0.13398,0.111908 -0.26522,0.228111 -0.392578,0.355469 -0.132089,0.132089 -0.256391,0.269758 -0.373047,0.410156 -0.139116,0.115405 -0.274248,0.237138 -0.40625,0.369141 -0.137035,0.137034 -0.266294,0.279803 -0.386719,0.425781 -0.144656,0.119118 -0.284881,0.245818 -0.421875,0.382812 -0.141323,0.141323 -0.276733,0.290572 -0.400391,0.441407 0,0 -0.002,0.002 -0.002,0.002 -0.149476,0.122299 -0.294224,0.255161 -0.435547,0.396484 -0.147133,0.147133 -0.284124,0.299588 -0.412109,0.457032 -0.156064,0.126572 -0.307861,0.262939 -0.455078,0.410156 -0.15256,0.15256 -0.293808,0.310964 -0.425781,0.474609 -0.161484,0.130026 -0.32061,0.269829 -0.472657,0.421875 -0.157954,0.157954 -0.301613,0.322351 -0.4375,0.492188 -0.167683,0.133906 -0.33073,0.276043 -0.488281,0.433593 -0.162041,0.162042 -0.308449,0.333266 -0.447266,0.507813 -0.174349,0.137998 -0.344368,0.285774 -0.507812,0.449219 -0.168559,0.168558 -0.321415,0.345253 -0.464844,0.527343 -0.178645,0.140591 -0.354256,0.289803 -0.521484,0.457032 -0.173256,0.173256 -0.327904,0.355416 -0.47461,0.542968 -0.185335,0.144561 -0.365959,0.299553 -0.539062,0.472657 -0.178747,0.178746 -0.339748,0.366583 -0.490234,0.560547 -0.190443,0.147536 -0.377117,0.304851 -0.554688,0.482421 -0.183806,0.183806 -0.346076,0.378229 -0.5,0.578125 -0.196845,0.1512 -0.389114,0.312943 -0.572266,0.496094 -0.188652,0.188653 -0.356498,0.388147 -0.513671,0.59375 -0.203185,0.154754 -0.401189,0.319157 -0.589844,0.507813 -0.19408,0.194079 -0.366581,0.401262 -0.527344,0.613281 -0.208361,0.157604 -0.412335,0.326397 -0.605469,0.519531 -0.19939,0.199391 -0.374836,0.410581 -0.539062,0.628906 -0.214369,0.160853 -0.424733,0.334889 -0.623047,0.533203 -0.203985,0.203985 -0.381647,0.420729 -0.548828,0.644532 -0.221232,0.164486 -0.436417,0.342667 -0.640625,0.546875 -0.05645,0.05645 -0.106527,0.115862 -0.160156,0.173828 -0.0613,0.05643 -0.123754,0.108129 -0.183594,0.167969 -0.0076,0.0076 -0.01396,0.01584 -0.02148,0.02344 -0.0076,0.0076 -0.01583,0.01387 -0.02344,0.02148 -0.01557,0.01557 -0.02762,0.03315 -0.04297,0.04883 -0.0093,0.0092 -0.02,0.01609 -0.0293,0.02539 -0.01387,0.01387 -0.02536,0.02901 -0.03906,0.04297 -0.02113,0.02053 -0.04351,0.03765 -0.06445,0.05859 -0.02307,0.02307 -0.04185,0.04894 -0.06445,0.07227 -0.0221,0.02145 -0.04646,0.03864 -0.06836,0.06055 -0.02748,0.02748 -0.04935,0.05809 -0.07617,0.08594 -0.02779,0.02676 -0.05845,0.04869 -0.08594,0.07617 -0.03475,0.03475 -0.06398,0.0721 -0.09766,0.107421 -0.03022,0.029 -0.06194,0.05413 -0.0918,0.08398 -0.02642,0.02642 -0.04842,0.05528 -0.07422,0.08203 -0.032,0.03064 -0.06606,0.0563 -0.09766,0.08789 -0.01152,0.01152 -0.0218,0.02358 -0.0332,0.03516 -0.0053,0.0053 -0.01033,0.01033 -0.01563,0.01563 -0.04292,0.04292 -0.0798,0.08901 -0.121094,0.132812 -0.04251,0.04014 -0.0871,0.07539 -0.128906,0.117188 -0.04788,0.04788 -0.08891,0.09946 -0.134766,0.148438 -0.04767,0.0447 -0.09775,0.08408 -0.144531,0.130859 -0.05052,0.05052 -0.09432,0.104517 -0.142578,0.15625 -0.05548,0.05147 -0.113692,0.09807 -0.167969,0.152344 -0.05925,0.05925 -0.109874,0.122675 -0.166016,0.183593 -0.05666,0.05248 -0.116467,0.09889 -0.171875,0.154297 -0.004,0.004 -0.0078,0.0078 -0.01172,0.01172 -0.004,0.004 -0.0077,0.0077 -0.01172,0.01172 -0.05766,0.05766 -0.107394,0.120448 -0.16211,0.179687 -0.06028,0.05556 -0.122779,0.105202 -0.18164,0.164063 -0.06638,0.06638 -0.123064,0.138552 -0.185547,0.207031 -0.07008,0.06375 -0.142756,0.121271 -0.210938,0.189453 -0.07215,0.07215 -0.13558,0.149982 -0.203125,0.224609 -0.07463,0.06748 -0.152124,0.13064 -0.224609,0.203126 -0.01887,0.01887 -0.03418,0.03956 -0.05273,0.05859 -0.0191,0.01861 -0.03964,0.03378 -0.05859,0.05273 -0.05766,0.05766 -0.107394,0.120448 -0.16211,0.179687 -0.06028,0.05556 -0.122779,0.105202 -0.18164,0.164063 -0.08222,0.08222 -0.154227,0.170418 -0.230469,0.255859 -0.08504,0.07583 -0.171628,0.148191 -0.253906,0.230469 -0.07992,0.07992 -0.150341,0.165087 -0.224609,0.248047 -0.08561,0.07628 -0.17305,0.147658 -0.25586,0.230468 -0.0059,0.0059 -0.01169,0.01165 -0.01758,0.01758 -0.006,0.0059 -0.01161,0.01161 -0.01758,0.01758 -0.09213,0.09213 -0.173186,0.190931 -0.257813,0.287109 -0.09571,0.08414 -0.192916,0.165573 -0.285156,0.257813 -0.09608,0.09608 -0.183572,0.196401 -0.271484,0.296874 -0.102371,0.08919 -0.204318,0.176974 -0.302735,0.275391 -0.03427,0.03428 -0.06247,0.07259 -0.0957,0.107422 -0.02922,0.02808 -0.06097,0.0512 -0.08984,0.08008 -0.07066,0.07066 -0.132974,0.145711 -0.199219,0.21875 -0.0727,0.06591 -0.148089,0.126604 -0.21875,0.197266 -0.107895,0.107895 -0.205137,0.220545 -0.302735,0.333984 -0.111118,0.09569 -0.221636,0.192339 -0.328125,0.298828 -0.05416,0.05416 -0.100781,0.112415 -0.152343,0.167969 -0.05493,0.051 -0.112267,0.09664 -0.166016,0.150391 -0.05811,0.05811 -0.108939,0.119968 -0.164062,0.179687 -0.05978,0.05514 -0.121305,0.10568 -0.179688,0.164063 -0.116566,0.116566 -0.223577,0.23829 -0.328125,0.361328 -0.123379,0.104521 -0.245559,0.210403 -0.363281,0.328125 -0.0616,0.0616 -0.115585,0.127999 -0.173828,0.191406 -0.06276,0.05766 -0.128226,0.110648 -0.189454,0.171875 -0.06057,0.06057 -0.112599,0.125186 -0.169921,0.1875 -0.06236,0.05732 -0.126649,0.109071 -0.1875,0.169922 -0.126831,0.126831 -0.24482,0.260039 -0.357422,0.394531 -0.13398,0.111908 -0.26522,0.228111 -0.392578,0.355469 -0.05283,0.05283 -0.09808,0.109906 -0.148438,0.164062 -0.05644,0.05229 -0.114726,0.0991 -0.169922,0.154297 -0.07661,0.07661 -0.143428,0.15888 -0.214843,0.238282 -0.08241,0.07374 -0.166286,0.142848 -0.246094,0.222656 -0.133073,0.133073 -0.25759,0.274508 -0.375,0.416015 -0.148737,0.121814 -0.292935,0.251919 -0.433594,0.392579 -0.03427,0.03427 -0.06247,0.07259 -0.0957,0.107421 -0.02922,0.02808 -0.06097,0.0512 -0.08984,0.08008 -0.109632,0.109631 -0.209593,0.224487 -0.308594,0.339843 -0.116469,0.09958 -0.232347,0.199144 -0.34375,0.310547 -0.143037,0.143038 -0.277402,0.29253 -0.402343,0.445313 -0.147262,0.120843 -0.292305,0.249335 -0.431641,0.388671 -0.0089,0.0089 -0.01653,0.01837 -0.02539,0.02734 -0.0027,0.0026 -0.0052,0.0052 -0.0078,0.0078 -0.151895,0.151894 -0.292341,0.309773 -0.423828,0.472656 -0.162242,0.130504 -0.32189,0.271108 -0.47461,0.423828 -0.09896,0.09896 -0.187042,0.203012 -0.277343,0.306641 -0.102748,0.08947 -0.205923,0.176625 -0.304688,0.27539 -0.05831,0.05831 -0.108757,0.121708 -0.164062,0.181641 -0.05958,0.05497 -0.12149,0.103912 -0.179688,0.162109 -0.162041,0.162042 -0.308449,0.333266 -0.447265,0.507813 -0.17435,0.137998 -0.344369,0.285774 -0.507813,0.449219 -0.03897,0.03897 -0.07175,0.0814 -0.109375,0.121093 -0.04482,0.04218 -0.09269,0.07902 -0.136719,0.123047 -0.128744,0.128744 -0.247244,0.2618 -0.361328,0.398438 -0.12853,0.108139 -0.256494,0.219384 -0.378906,0.341797 -0.141323,0.141323 -0.272827,0.286665 -0.396485,0.4375 -0.149476,0.122298 -0.294224,0.253208 -0.435547,0.394531 -0.03064,0.03064 -0.05612,0.06461 -0.08594,0.0957 -0.03132,0.03002 -0.06477,0.05501 -0.0957,0.08594 -0.17913,0.179131 -0.339486,0.370041 -0.490235,0.564454 -0.190113,0.147345 -0.377404,0.303185 -0.554687,0.480468 -0.063869,0.06387 -0.1194268,0.131455 -0.1796874,0.197266 -0.065849,0.06025 -0.1330972,0.115519 -0.1972656,0.179688 -0.115568,0.115567 -0.2204641,0.237446 -0.3242188,0.359374 -0.1263423,0.10661 -0.2506714,0.217469 -0.3710937,0.337891 -0.1590363,0.159036 -0.3047412,0.325012 -0.4414063,0.496094 -0.1696483,0.135121 -0.3368036,0.280163 -0.4960937,0.439453 -0.028459,0.02846 -0.052335,0.05904 -0.080078,0.08789 -0.028248,0.02719 -0.058008,0.0502 -0.085937,0.07813 -0.192645,0.192645 -0.361665,0.399054 -0.5214844,0.609375 -0.2100004,0.158496 -0.416779,0.328888 -0.6113281,0.523437 -0.063555,0.06355 -0.1177523,0.131787 -0.1777344,0.197266 -0.060831,0.05603 -0.1242023,0.106624 -0.1835938,0.166015 -0.1353923,0.135393 -0.2616808,0.275799 -0.3808593,0.419922 -0.1428449,0.117911 -0.2826042,0.243542 -0.4179688,0.378907 -0.1515111,0.151511 -0.2926212,0.308259 -0.4238281,0.470703 -0.1610458,0.129748 -0.3170934,0.268265 -0.46875,0.419921 -0.052711,0.05271 -0.098184,0.110029 -0.1484375,0.164063 -0.049739,0.0465 -0.1016228,0.08795 -0.1503906,0.136719 -0.2094122,0.209412 -0.3938293,0.431811 -0.5644531,0.662109 -0.2268755,0.167415 -0.4472129,0.347604 -0.6562501,0.556641 -0.03393,0.03393 -0.062791,0.07099 -0.095703,0.105468 -0.034727,0.03313 -0.07122,0.06145 -0.1054687,0.0957 -0.1783897,0.178389 -0.3360858,0.368954 -0.4863282,0.5625 -0.1932971,0.149178 -0.3824386,0.306266 -0.5625,0.486328 -0.1189113,0.118911 -0.2295328,0.243495 -0.3359375,0.36914 -0.1244526,0.10528 -0.2465336,0.213331 -0.3652343,0.332032 -0.098304,0.0983 -0.1856345,0.201781 -0.27539068,0.304687 -0.1020304,0.08894 -0.2046327,0.175336 -0.3027343,0.273438 -0.2056629,0.20566 -0.3863755,0.426451 -0.5546502,0.652303 -0.2228624,0.165339 -0.4408793,0.343223 -0.6464844,0.548828 -0.018208,0.01821 -0.0328665,0.03827 -0.0507812,0.05664 -0.0184301,0.01797 -0.0383472,0.03249 -0.0566407,0.05078 -0.2295061,0.229506 -0.43036442,0.475877 -0.61328122,0.730469 -0.2517075,0.179664 -0.4945152,0.379281 -0.7246094,0.609375 -0.059429,0.05943 -0.111664,0.122483 -0.1679687,0.183594 -0.065151,0.05966 -0.1318075,0.114229 -0.1953126,0.177734 -0.1715447,0.171545 -0.325187,0.35155 -0.4707031,0.53711 -0.1833512,0.143391 -0.3618398,0.297386 -0.5332031,0.46875 -0.141323,0.141323 -0.2747799,0.286665 -0.3984375,0.4375 -0.1494762,0.122298 -0.294224,0.253208 -0.4355469,0.394531 -0.093453,0.09345 -0.1759909,0.193404 -0.2617187,0.291015 -0.1015354,0.08856 -0.2050912,0.175795 -0.3027344,0.273438 -0.2245782,0.224578 -0.4196412,0.464292 -0.5996094,0.712891 -0.2435845,0.175769 -0.4798851,0.366603 -0.703125,0.589843 -0.020752,0.02075 -0.038222,0.0435 -0.058594,0.06445 -0.021126,0.02053 -0.043506,0.03765 -0.064453,0.05859 -0.2500482,0.250048 -0.4673636,0.519002 -0.6621093,0.798828 -0.276557,0.190919 -0.5421032,0.407338 -0.7929689,0.658203 -0.054157,0.05416 -0.100781,0.112415 -0.152344,0.167969 -0.054928,0.051 -0.112267,0.09664 -0.166015,0.150391 -0.19989,0.199889 -0.376467,0.41194 -0.541016,0.630859 -0.215606,0.161514 -0.427574,0.335778 -0.626953,0.535157 -0.128744,0.128744 -0.247245,0.261799 -0.361328,0.398437 -0.135511,0.112956 -0.269694,0.232584 -0.398438,0.361328 -0.1280829,0.128084 -0.2458019,0.260588 -0.3593749,0.396485 -0.134712,0.112409 -0.266509,0.2294 -0.394531,0.357421 -0.205317,0.205317 -0.386657,0.424997 -0.554687,0.650391 -0.223444,0.165641 -0.440382,0.344678 -0.646485,0.550781 -0.05824,0.05824 -0.108823,0.119833 -0.164062,0.179688 -0.05962,0.05501 -0.121448,0.105823 -0.179688,0.164062 -0.271409,0.271409 -0.506636,0.560696 -0.71289,0.867188 -0.301283,0.201164 -0.588128,0.43383 -0.859375,0.705078 -0.01152,0.01152 -0.0218,0.02357 -0.0332,0.03516 -0.01168,0.0115 -0.02353,0.02158 -0.03516,0.0332 -0.263601,0.263601 -0.493171,0.547056 -0.695312,0.84375 -0.293734,0.198135 -0.57479,0.426352 -0.839844,0.691406 -0.08142,0.08142 -0.152962,0.16738 -0.228516,0.251954 -0.08412,0.0751 -0.170536,0.147099 -0.251953,0.228515 -0.197397,0.197396 -0.370271,0.407093 -0.533203,0.623047 -0.212801,0.160011 -0.420223,0.33233 -0.617187,0.52929 -0.151511,0.15152 -0.292622,0.30826 -0.423828,0.47071 -0.161046,0.12975 -0.317094,0.26826 -0.46875,0.41992 -0.130462,0.13046 -0.251781,0.26768 -0.367188,0.40625 -0.137297,0.11417 -0.271984,0.23292 -0.402344,0.36328 -0.223696,0.2237 -0.420173,0.46341 -0.599609,0.71094 -0.243922,0.17593 -0.481553,0.37022 -0.705078,0.59375 -0.06554,0.0655 -0.121857,0.13554 -0.183594,0.20312 -0.06761,0.0617 -0.137282,0.11775 -0.203125,0.1836 -0.296679,0.29667 -0.552658,0.61648 -0.771484,0.95508 -0.01654,0.0106 -0.03433,0.0185 -0.05078,0.0293 0,0 -0.002,0.002 -0.002,0.002 -0.0315,0.0206 -0.06062,0.047 -0.0918,0.0684 -0.122758,0.0845 -0.245578,0.16932 -0.363281,0.26562 -0.0021,0.002 -0.0037,0.004 -0.0059,0.006 -0.147263,0.12084 -0.290351,0.25129 -0.429688,0.39062 -0.0017,0.002 -0.0042,0.002 -0.0059,0.004 -0.08718,0.0872 -0.163685,0.18069 -0.244141,0.27149 -0.04837,0.0547 -0.102505,0.10608 -0.148437,0.1621 -0.0015,0.002 -0.0025,0.004 -0.0039,0.006 -0.121945,0.14912 -0.235137,0.30254 -0.339843,0.46094 -0.01627,0.0245 -0.03102,0.0495 -0.04687,0.0742 -0.340632,0.2156 -0.663675,0.47227 -0.966797,0.77539 -0.06387,0.0639 -0.119427,0.13145 -0.179688,0.19727 -0.06585,0.0602 -0.133097,0.11552 -0.197265,0.17968 -0.240163,0.24017 -0.449526,0.498 -0.638672,0.76563 -0.265731,0.18614 -0.52182,0.39486 -0.763672,0.63672 -0.128744,0.12874 -0.247245,0.2618 -0.361328,0.39843 -0.135511,0.11296 -0.269694,0.23259 -0.398438,0.36133 -0.179719,0.17972 -0.339083,0.36935 -0.490234,0.56446 -0.191662,0.14824 -0.379959,0.30574 -0.558594,0.48437 -0.195685,0.19569 -0.367481,0.40326 -0.529297,0.61719 -0.210783,0.15892 -0.416103,0.33016 -0.611328,0.52539 -0.117539,0.11754 -0.226712,0.23916 -0.332031,0.36328 -0.124453,0.10528 -0.246534,0.21333 -0.365234,0.33203 -0.26231,0.26231 -0.489956,0.54477 -0.691407,0.83985 -0.290816,0.19694 -0.569377,0.42289 -0.832031,0.68554 -0.05613,0.0561 -0.104856,0.1162 -0.158203,0.17383 -0.06167,0.0567 -0.125359,0.10778 -0.185547,0.16797 -0.329697,0.3297 -0.606292,0.68884 -0.839844,1.07031 -0.373782,0.22607 -0.727171,0.49671 -1.05664,0.82617 -0.0017,0.002 -0.0022,0.004 -0.0039,0.006 -0.0017,0.002 -0.0042,0.002 -0.0059,0.004 -0.137635,0.13825 -0.26789,0.28236 -0.388672,0.42969 -0.171087,0.20769 -0.319536,0.42656 -0.457031,0.65234 -0.378831,0.22754 -0.736871,0.50249 -1.070313,0.83594 -0.05943,0.0594 -0.111663,0.12248 -0.167968,0.18359 -0.06515,0.0597 -0.131808,0.11423 -0.195313,0.17774 -0.273789,0.27378 -0.513216,0.56746 -0.720703,0.87695 -0.306357,0.20315 -0.597651,0.4414 -0.873047,0.7168 -0.121134,0.12113 -0.231688,0.24687 -0.339843,0.375 -0.12775,0.10759 -0.253298,0.21814 -0.375,0.33984 -0.217603,0.2176 -0.408264,0.45125 -0.583985,0.69141 -0.237425,0.17274 -0.467526,0.3601 -0.685547,0.57812 -0.18256,0.18256 -0.344965,0.37774 -0.498047,0.57617 -0.196069,0.15076 -0.387836,0.30971 -0.570312,0.49219 -0.160751,0.16075 -0.307418,0.33085 -0.445313,0.50391 -0.171615,0.13633 -0.340923,0.28233 -0.501953,0.44336 -0.244839,0.24484 -0.456621,0.5059 -0.648437,0.77929 -0.268661,0.18745 -0.527188,0.39829 -0.771485,0.64258 -0.104674,0.10468 -0.199938,0.21433 -0.294921,0.32422 -0.111034,0.0956 -0.221715,0.19046 -0.328126,0.29687 -0.307245,0.30725 -0.569219,0.63999 -0.792968,0.99219 -0.345672,0.21729 -0.673311,0.47605 -0.980469,0.78321 -0.04854,0.0485 -0.09026,0.10072 -0.136719,0.15039 -0.0541,0.0503 -0.111106,0.0955 -0.164062,0.14843 -0.367688,0.36769 -0.667907,0.77105 -0.916016,1.20313 -0.421662,0.23863 -0.818795,0.53168 -1.185547,0.89844 -0.0043,0.004 -0.0074,0.009 -0.01172,0.0137 -0.0043,0.004 -0.0094,0.007 -0.01367,0.0117 -0.367834,0.36783 -0.66981,0.77085 -0.917969,1.20312 -0.423079,0.23896 -0.821612,0.53645 -1.189453,0.9043 -0.05778,0.0578 -0.107279,0.12031 -0.16211,0.17969 -0.06167,0.0567 -0.125359,0.10778 -0.185547,0.16797 -0.314346,0.31434 -0.579694,0.65617 -0.80664,1.01757 -0.35479,0.22026 -0.693383,0.48245 -1.007813,0.79688 -0.114184,0.11418 -0.21766,0.23312 -0.320312,0.35351 -0.11871,0.1012 -0.236154,0.20491 -0.349609,0.31836 -0.261887,0.26189 -0.490183,0.54139 -0.691407,0.83594 -0.289523,0.19641 -0.566536,0.42201 -0.828125,0.68359 -0.169224,0.16923 -0.322901,0.34644 -0.466797,0.5293 -0.181459,0.14227 -0.359594,0.29514 -0.529297,0.46485 -0.210605,0.2106 -0.395032,0.43428 -0.566406,0.66601 -0.227666,0.16782 -0.448491,0.34888 -0.658203,0.55859 -0.22646,0.22647 -0.424369,0.46982 -0.605469,0.72071 -0.247241,0.17753 -0.486561,0.37132 -0.71289,0.59765 -0.158371,0.15837 -0.303267,0.32578 -0.439453,0.4961 -0.168886,0.13465 -0.333573,0.27693 -0.492188,0.43554 -0.282646,0.28265 -0.530203,0.58751 -0.742187,0.90821 0,0 -0.002,0 -0.002,0 -0.315258,0.20655 -0.615791,0.45173 -0.898437,0.73437 -0.107895,0.1079 -0.205136,0.22055 -0.302734,0.33399 -0.113198,0.0972 -0.225584,0.19433 -0.333985,0.30273 -0.341996,0.342 -0.62669,0.71558 -0.865234,1.11328 -0.389828,0.23061 -0.757548,0.51146 -1.09961,0.85352 -0.05613,0.0561 -0.104856,0.11619 -0.158203,0.17383 -0.06167,0.0567 -0.125359,0.10778 -0.185547,0.16797 -0.400688,0.40068 -0.727646,0.8412 -0.986328,1.31835 -0.466476,0.24781 -0.901861,0.56983 -1.302734,0.97071 -0.0083,0.008 -0.01525,0.0171 -0.02344,0.0254 -0.0083,0.008 -0.01708,0.0151 -0.02539,0.0234 -0.41555,0.41555 -0.752812,0.8733 -1.015625,1.37109 -0.485775,0.25102 -0.936214,0.58074 -1.351563,0.99609 -0.0415,0.0415 -0.07721,0.0866 -0.117187,0.12891 -0.04241,0.04 -0.08721,0.0755 -0.128906,0.11719 -0.376068,0.37606 -0.682619,0.78899 -0.933594,1.23242 -0.433773,0.24135 -0.840752,0.54388 -1.216797,0.91992 -0.09146,0.0915 -0.173747,0.18775 -0.257812,0.2832 -0.09463,0.0833 -0.19002,0.16463 -0.28125,0.25586 -0.327589,0.32759 -0.601316,0.68381 -0.833985,1.0625 -0.372073,0.22557 -0.726566,0.4961 -1.054687,0.82422 -0.141323,0.14133 -0.272827,0.28667 -0.396485,0.4375 -0.149476,0.1223 -0.294224,0.25321 -0.435547,0.39453 -0.27855,0.27855 -0.5225,0.57708 -0.732422,0.89258 -0.313123,0.20575 -0.609715,0.44956 -0.890624,0.73047 -0.192264,0.19226 -0.361917,0.39755 -0.521485,0.60742 -0.208767,0.15783 -0.411984,0.32605 -0.605469,0.51953 -0.233035,0.23304 -0.436091,0.48329 -0.621093,0.74219 -0.255845,0.18161 -0.502755,0.38166 -0.736329,0.61523 -0.243507,0.24351 -0.455423,0.5056 -0.646484,0.77735 -0.270028,0.18806 -0.529954,0.39909 -0.77539,0.64453 -0.185801,0.1858 -0.350594,0.3837 -0.50586,0.58594 -0.201956,0.15407 -0.4003,0.32022 -0.58789,0.50781 -0.296638,0.29664 -0.552678,0.61458 -0.771485,0.95313 -0.332136,0.21267 -0.647062,0.46542 -0.943359,0.76171 -0.138342,0.13835 -0.267258,0.28223 -0.388672,0.42969 -0.150983,0.12328 -0.296781,0.25577 -0.439453,0.39844 -0.349758,0.34976 -0.639303,0.7326 -0.88086,1.14062 -0.400304,0.23339 -0.778676,0.51892 -1.128906,0.86914 -0.09345,0.0935 -0.175991,0.19341 -0.261719,0.29102 -0.101535,0.0886 -0.205091,0.17579 -0.302734,0.27344 -0.403968,0.40397 -0.732561,0.84839 -0.992188,1.33008 -0.469389,0.24831 -0.90748,0.56958 -1.310546,0.97265 -0.05074,0.0507 -0.09412,0.10624 -0.142578,0.15821 -0.05159,0.0481 -0.105699,0.0901 -0.15625,0.14062 -0.458658,0.45865 -0.819209,0.97045 -1.091797,1.5293 -0.544433,0.25826 -1.047277,0.60977 -1.50586,1.06836 -0.0059,0.006 -0.01169,0.0116 -0.01758,0.0176 -0.006,0.006 -0.01161,0.0116 -0.01758,0.0176 -0.470363,0.47037 -0.836653,0.99654 -1.111328,1.57227 -0.560948,0.25964 -1.080226,0.61929 -1.550781,1.08984 -0.0417,0.0417 -0.07703,0.0864 -0.117188,0.12891 -0.03669,0.0349 -0.07517,0.0654 -0.111328,0.10156 -0.432337,0.43234 -0.779865,0.91028 -1.046875,1.43164 -0.509641,0.25442 -0.980988,0.59622 -1.414063,1.0293 -0.481781,0.48178 -0.854381,1.02095 -1.130859,1.61328 -0.57667,0.26069 -1.107963,0.62359 -1.589843,1.10547 -0.48693,0.48693 -0.86146,1.03491 -1.13867,1.63476 -0.58424,0.26111 -1.124027,0.62794 -1.611327,1.11524 -0.49312,0.49312 -0.87235,1.04731 -1.15039,1.65625 -0.59108,0.26143 -1.13672,0.63086 -1.62891,1.12305 -0.49828,0.49828 -0.87952,1.05924 -1.1582,1.67578 -0.5995,0.26177 -1.15221,0.63463 -1.65039,1.13281 -0.50408,0.50408 -0.88864,1.07216 -1.16797,1.69726 -0.60702,0.26202 -1.1664,0.63711 -1.66992,1.14063 -0.50945,0.50945 -0.89785,1.08374 -1.17774,1.7168 -0.61485,0.26221 -1.18039,0.64132 -1.68945,1.15039 -0.51525,0.51524 -0.90707,1.09659 -1.1875,1.73828 -0.62317,0.26236 -1.19405,0.64327 -1.70898,1.1582 -0.52012,0.52012 -0.91448,1.10886 -1.19532,1.75781 -0.63169,0.26245 -1.20955,0.64901 -1.73047,1.16993 -1.13058,1.13058 -1.69726,2.56532 -1.69726,4.30468 0,1.56542 0.56669,2.91238 1.69726,4.04297 l 12.52344,12.52344 2.92578,-2.92578 2.896487,-2.89649 2.525389,-2.52539 0.341797,-0.34179 2.585937,-2.58594 0.251953,-0.25195 2.644532,-2.64454 0.164062,-0.16406 2.703125,-2.70312 0.07617,-0.0762 2.75,-2.75 0.01172,-0.0117 2.708984,-2.70899 0.09961,-0.0996 2.361329,-2.36133 0.228515,-0.23046 0.189453,-0.1875 2.472656,-2.47266 0.03516,-0.0352 2.597656,-2.59765 0.298828,-0.29883 2.302735,-2.30274 0.222656,-0.22265 2.351562,-2.35156 0.541016,-0.54102 0.0332,-0.0352 0.07617,-0.0762 0.177734,-0.17578 2.644531,-2.64453 0.164063,-0.16406 1.421875,-1.42188 0.716797,-0.71679 0.564453,-0.56446 0.07617,-0.0762 1.126953,-1.12695 0.806641,-0.80664 0.816406,-0.81641 0.01172,-0.0117 0.820312,-0.82226 0.894531,-0.89258 0.994141,-0.99414 0.09961,-0.0996 2.589844,-2.5918 0.105469,-0.10547 0.08398,-0.082 0.05664,-0.0566 1.070312,-1.07031 1.296875,-1.29688 0.04883,-0.0488 0.27539,-0.27734 0.513672,-0.51172 0.320312,-0.32031 0.585938,-0.58594 0.59375,-0.59375 0.34375,-0.34375 0.363281,-0.36328 1.601563,-1.60156 0.636718,-0.63672 0.453126,-0.45313 2.121093,-2.12109 0.541016,-0.54101 1.789062,-1.78907 0.212891,-0.21289 v -0.002 l 0.236328,-0.23438 0.05078,-0.0508 0.341797,-0.34375 0.367188,-0.36523 v -0.002 l 0.863281,-0.86329 0.382813,-0.38281 0.273437,-0.27148 0.669922,-0.67188 0.04687,-0.0449 2.115234,-2.11523 0.134766,-0.13477 0.322266,-0.32422 0.216796,-0.2168 1.101563,-1.10156 0.162109,-0.16211 0.169922,-0.16797 0.02539,-0.0254 0.86914,-0.86914 1.232422,-1.23242 0.300781,-0.30078 0.980469,-0.98047 0.792969,-0.79297 0.623047,-0.62305 1.070312,-1.07031 0.34961,-0.35156 0.947265,-0.94531 1.06836,-1.06836 0.08984,-0.0899 0.365234,-0.36718 0.701172,-0.69922 0.113281,-0.11328 0.714844,-0.71485 0.232422,-0.23242 0.298828,-0.29883 1.423828,-1.42578 0.351562,-0.34961 0.07422,-0.0742 0.06641,-0.0684 0.480469,-0.48046 0.125,-0.12305 0.820313,-0.82031 0.0098,-0.01 0.06055,-0.0605 1.351563,-1.35351 0.367187,-0.36719 0.34375,-0.3418 0.117188,-0.11718 0.240234,-0.24219 0.447266,-0.44727 0.6875,-0.6875 0.0918,-0.0918 0.02539,-0.0234 0.01953,-0.0195 0.01172,-0.0117 0.697266,-0.69727 1.140625,-1.14062 0.458984,-0.45899 0.589844,-0.58984 0.759766,-0.75977 0.08398,-0.084 0.84375,-0.8457 0.0098,-0.01 0.464843,-0.46289 v -0.002 l 1.433594,-1.43164 v -0.002 l 0.3417969,-0.34179 2.072266,-2.07032 0.148437,-0.14843 0.2382812,-0.23828 1.3046876,-1.30469 0.6484374,-0.64844 0.1210938,-0.12109 0.890625,-0.89258 1.1503906,-1.14844 0.00195,-0.002 0.4804687,-0.48047 1.5351563,-1.53516 0.068359,-0.0684 0.041016,-0.041 0.00391,-0.004 1.52734382,-1.52734 0.1894531,-0.18946 0.1542969,-0.15429 0.2324218,-0.23242 0.96874998,-0.96875 0.070312,-0.0703 0.6835938,-0.68554 0.3007812,-0.30078 0.048828,-0.0488 0.037109,-0.0371 0.3378906,-0.33789 0.4140626,-0.41211 0.00977,-0.01 0.7792968,-0.77929 0.3183594,-0.31836 0.1484375,-0.14844 1.15625,-1.1582 0.1503907,-0.14844 v -0.002 l 0.072266,-0.0723 0.050781,-0.0488 0.578125,-0.58008 0.00586,-0.006 0.00977,-0.01 0.058594,-0.0586 0.7773437,-0.77539 0.4375,-0.4375 0.09375,-0.0937 0.7402344,-0.74023 1.0039062,-1.00391 0.363282,-0.36328 0.457031,-0.45703 0.880859,-0.88086 0.107422,-0.10742 0.9375,-0.9375 0.261719,-0.26367 h 0.002 l 0.324219,-0.32422 0.06445,-0.0644 0.189453,-0.18946 0.701172,-0.70117 0.232422,-0.23242 0.123047,-0.12305 0.693359,-0.69336 0.201172,-0.20117 0.408203,-0.4082 0.564454,-0.564454 0.248046,-0.248046 0.298828,-0.298829 0.892579,-0.892578 0.398437,-0.398437 0.367188,-0.369141 0.01953,-0.01953 0.01367,-0.01172 0.361328,-0.361328 0.230469,-0.230469 0.755859,-0.757812 0.06055,-0.05859 0.08594,-0.08594 0.05859,-0.05859 0.107422,-0.109375 0.355469,-0.353516 0.582031,-0.582031 0.01172,-0.01172 0.578125,-0.578125 0.105469,-0.105469 0.376953,-0.376953 0.21875,-0.21875 0.826171,-0.826172 0.181641,-0.18164 0.04102,-0.04102 1.210937,-1.210937 0.208985,-0.208985 0.111328,-0.111328 0.189453,-0.189453 0.05664,-0.05664 0.833985,-0.833984 0.121094,-0.121094 0.34375,-0.34375 0.333984,-0.333984 0.248047,-0.248047 0.115234,-0.115234 0.783203,-0.783204 0.0332,-0.0332 0.482422,-0.482421 0.351563,-0.351563 0.583984,-0.583984 0.06836,-0.06836 0.185547,-0.185547 0.443359,-0.443359 0.365234,-0.365234 0.01172,-0.01172 0.484375,-0.486328 0.28125,-0.28125 h 0.002 l 0.457031,-0.458985 0.291016,-0.291015 h 0.002 l 0.201172,-0.203125 0.0918,-0.08984 0.06445,-0.06445 0.363281,-0.363281 0.560547,-0.560547 0.13086,-0.13086 0.113281,-0.113281 0.548828,-0.548828 0.408203,-0.408203 0.222656,-0.222656 0.01953,-0.01953 0.09961,-0.101562 0.06836,-0.06641 0.01367,-0.01367 0.216797,-0.216797 0.185547,-0.185547 0.09961,-0.09961 0.47461,-0.47461 0.421875,-0.421875 0.03516,-0.03516 0.08594,-0.08594 0.03516,-0.03516 0.478515,-0.480468 h 0.002 l 0.53711,-0.53711 0.291015,-0.291016 0.05469,-0.05469 0.05664,-0.05859 0.130859,-0.128906 0.296875,-0.296875 0.396484,-0.396484 0.115235,-0.115235 0.228515,-0.228515 0.02344,-0.02344 0.208984,-0.208984 0.128906,-0.13086 0.189454,-0.1875 0.121093,-0.121093 0.279297,-0.279297 0.25,-0.25 0.04883,-0.04883 0.169922,-0.171875 0.191406,-0.191407 0.04687,-0.04492 0.115235,-0.115234 0.132812,-0.132812 0.103516,-0.103516 0.01172,-0.01172 0.06055,-0.06055 0.04492,-0.04492 0.34375,-0.34375 0.40625,-0.408203 0.09766,-0.09766 0.02539,-0.02539 0.0098,-0.0098 0.0078,-0.0078 0.03711,-0.03516 0.605468,-0.607422 0.0957,-0.0957 0.0039,-0.0039 0.0098,-0.0078 0.0332,-0.0332 0.06641,-0.06641 0.136719,-0.136719 0.416015,-0.416015 0.400391,-0.400391 0.199219,-0.199219 0.05859,-0.06055 0.0039,-0.0039 0.02148,-0.02148 0.0293,-0.0293 0.0098,-0.0098 0.01367,-0.01172 0.02344,-0.02344 0.371094,-0.373047 0.04297,-0.04297 0.02148,-0.01953 0.02148,-0.02148 0.04883,-0.04883 0.03906,-0.03906 v -0.002 l 0.0332,-0.0332 0.128906,-0.128906 0.03516,-0.03516 0.01563,-0.01563 0.01563,-0.01367 0.285157,-0.285157 0.820312,-0.820312 v -0.002 l 0.002,-0.002 0.0059,-0.0059 0.04102,-0.03906 0.02148,-0.02148 0.0293,-0.0293 0.02148,-0.02148 0.425781,-0.427734 0.208984,-0.207032 0.07227,-0.07227 0.08203,-0.08203 0.03516,-0.03516 0.125,-0.125 0.216796,-0.21875 0.01758,-0.01563 0.0039,-0.0039 0.0039,-0.0039 0.337891,-0.337891 0.464844,-0.464844 v -0.002 l 0.105468,-0.103515 0.0098,-0.0098 0.0078,-0.0078 0.251954,-0.251954 0.002,-0.002 0.04492,-0.04687 0.167969,-0.166015 0.0039,-0.0039 0.689453,-0.689453 0.01758,-0.01758 0.138672,-0.138672 0.560547,-0.560547 0.833984,-0.833984 0.121094,-0.121094 0.925781,-0.925781 0.115234,-0.115234 0.783203,-0.783203 0.34961,-0.34961 0.517578,-0.517578 0.583984,-0.583984 0.253906,-0.253907 0.808594,-0.808593 0.01172,-0.01172 1.042969,-1.044922 0.613281,-0.611328 0.402344,-0.402344 0.179687,-0.179687 0.691406,-0.691407 0.113282,-0.113281 0.546875,-0.548828 0.410156,-0.408203 0.222656,-0.222656 0.603516,-0.603516 0.09961,-0.09961 0.472656,-0.47461 0.423829,-0.421875 0.121093,-0.121093 0.294922,-0.294922 0.220703,-0.220704 0.07227,-0.07227 0.158203,-0.160156 0.251953,-0.251953 h 0.002 l 0.101563,-0.103516 0.212891,-0.212891 0.0625,-0.0625 0.07812,-0.07813 0.13086,-0.128906 0.296875,-0.296875 0.396484,-0.396484 0.115235,-0.115235 0.251953,-0.251953 0.33789,-0.339844 0.189453,-0.1875 0.119141,-0.121093 0.53125,-0.529297 0.09961,-0.09961 0.119141,-0.121093 0.04492,-0.04297 0.146484,-0.146485 0.08594,-0.08594 0.208984,-0.208984 v -0.002 L 66.54145,50.04588 h 0.002 l 0.0098,-0.01172 0.0625,-0.06055 v -0.002 l 0.04297,-0.04297 h 0.002 l 0.0625,-0.06445 0.03516,-0.03516 0.02344,-0.02344 0.0098,-0.0098 0.08984,-0.08789 0.002,-0.002 0.09375,-0.09375 0.207031,-0.207031 0.722656,-0.722656 0.632813,-0.632813 0.603515,-0.603515 0.572266,-0.572266 0.544922,-0.544922 0.513672,-0.513672 0.486328,-0.486328 0.455078,-0.455078 0.425781,-0.427734 0.08203,-0.08008 0.16211,-0.16211 0.07227,-0.07227 0.04687,-0.04687 0.03516,-0.03516 0.367187,-0.367187 0.337891,-0.337891 0.308593,-0.308594 0.279297,-0.279297 0.25,-0.25 0.220703,-0.220703 0.191407,-0.191406 0.162109,-0.162109 0.132813,-0.132813 0.101562,-0.101562 0.07422,-0.07422 0.04297,-0.04492 -12.523438,-12.523437 c -1.130584,-1.130584 -2.521437,-1.651424 -4.173828,-1.564453 -0.206549,-0.01087 -0.409026,-0.01206 -0.607422,-0.0039 z m 29.257813,11.222657 c -0.554422,0.06522 -1.059044,0.326621 -1.515625,0.783203 l -0.0332,0.0332 c -0.0038,0.0038 -0.0079,0.006 -0.01172,0.0098 l -0.07227,0.07422 -0.103515,0.103516 -0.121094,0.121094 -0.01172,0.0098 -0.162109,0.162109 -0.191407,0.191407 -0.220703,0.220703 -0.25,0.25 -0.279297,0.279297 -0.308593,0.308593 -0.337891,0.337891 -0.367187,0.369141 -0.396485,0.396484 -0.416015,0.416016 -0.01172,0.0098 -0.455078,0.457032 -0.484375,0.484375 -0.503907,0.503906 -0.01172,0.0098 -0.544922,0.544921 -0.572266,0.574219 -0.59375,0.591797 -0.0098,0.0098 -0.632813,0.632812 -0.660156,0.662109 -0.691407,0.691407 -0.720703,0.720703 -0.75,0.75 -0.779297,0.779297 -0.808593,0.808593 -0.837891,0.837891 -0.867187,0.867188 -0.0332,0.0332 -0.0078,0.0078 -0.0039,0.002 -0.0039,0.0039 -0.0059,0.0059 -0.0059,0.0059 -0.08594,0.08594 -0.04102,0.04102 -0.701172,0.701171 c -0.0034,0.0034 -0.0064,0.0064 -0.0098,0.0098 l -0.925781,0.927734 -0.955078,0.955079 -0.976563,0.974609 -0.002,0.002 -0.0078,0.0078 -1.013672,1.015626 -0.328125,0.328124 -0.05469,0.05469 -0.04297,0.04297 -0.01562,0.01563 -0.0039,0.002 -0.002,0.002 -0.0039,0.0039 -0.03711,0.03711 -0.308593,0.308593 -0.238281,0.238282 -0.0098,0.0098 -1.072266,1.074219 -1.103515,1.103516 -0.4375,0.4375 -0.07031,0.07031 -0.03125,0.03125 -0.01367,0.01367 -0.0059,0.0059 -0.0039,0.002 -0.002,0.002 -0.04102,0.04102 -0.238281,0.238282 -0.279297,0.279296 -0.0098,0.0098 -1.162109,1.162109 -1.189453,1.191407 -1.220704,1.220703 -1.25,1.25 -1.279296,1.279297 -1.308594,1.308593 -1.378906,1.378907 -0.08008,0.08008 -0.111329,0.111328 -0.136718,0.136719 -0.148438,0.148437 -0.123047,0.123047 -0.0078,0.0078 -0.0078,0.0078 -0.0039,0.002 -0.002,0.002 -0.03906,0.03906 -0.0293,0.0293 -0.207031,0.207031 -0.117187,0.117187 -0.144532,0.144532 -0.160156,0.160156 c -0.0034,0.0034 -0.0064,0.0064 -0.0098,0.0098 l -1.396485,1.396484 -1.425781,1.427734 -1.455078,1.455078 -1.474609,1.47461 -0.002,0.002 -0.0059,0.0039 -0.002,0.002 -0.002,0.002 -1.513672,1.515625 -1.244141,1.244141 -0.04492,0.04297 -0.0059,0.0059 -0.002,0.002 -0.238281,0.238282 -0.0098,0.0098 -1.572266,1.574219 -1.591797,1.591797 -0.002,0.002 -0.0039,0.002 -0.0039,0.0039 -0.002,0.002 -0.04492,0.04687 -1.408203,1.40625 c -0.0037,0.0037 -0.0061,0.008 -0.0098,0.01172 l -0.0332,0.0332 -0.07422,0.07422 -0.0625,0.06055 -0.04102,0.04102 c 0,0 -0.002,0.002 -0.002,0.002 l -0.128906,0.130859 -0.162109,0.162109 -0.191406,0.191407 -0.220703,0.220703 -0.25,0.25 -0.279297,0.279297 -0.291016,0.291015 -0.01758,0.01758 -0.07617,0.07617 -0.261719,0.261719 -0.36914,0.367187 c -0.0013,0.0013 -0.0026,0.0026 -0.0039,0.0039 L 36.65744,88.28049 c -0.0037,0.0037 -0.0061,0.008 -0.0098,0.01172 l -0.416016,0.416015 -0.238281,0.238281 -0.21875,0.216797 c -0.0037,0.0037 -0.0061,0.008 -0.0098,0.01172 l -0.474609,0.47461 -0.515625,0.513671 c -0.0037,0.0037 -0.0061,0.008 -0.0098,0.01172 l -0.492187,0.492188 -0.04102,0.04102 -0.574219,0.572266 c -0.0037,0.0037 -0.0061,0.008 -0.0098,0.01172 l -0.591797,0.591796 -0.521485,0.521485 -0.002,0.002 -0.0039,0.002 -0.002,0.002 -0.002,0.002 c 0,0 -0.002,0.002 -0.002,0.002 l -0.09961,0.101563 -0.662109,0.660156 -0.691406,0.691407 -0.326172,0.326171 -0.394531,0.394532 -0.75,0.75 -0.664063,0.664062 -0.07617,0.07617 -0.03906,0.03906 -0.107422,0.107421 -0.701172,0.701172 -0.669922,0.671875 -0.167969,0.166016 c -0.0037,0.0037 -0.0061,0.008 -0.0098,0.01172 l -0.06641,0.06641 -0.791015,0.791015 -0.896485,0.896485 -0.179687,0.179687 -0.748047,0.746099 c -0.002,0.002 -0.0039,0.004 -0.0059,0.006 l -0.949219,0.94922 c -0.0037,0.004 -0.0061,0.008 -0.0098,0.0117 l -0.183594,0.18359 -0.791015,0.79101 -0.04883,0.0488 -0.556641,0.55664 -0.273437,0.27344 -0.109375,0.10938 -0.01758,0.0176 -0.0098,0.008 c 0,0 0,0.002 0,0.002 0,0 -0.002,0 -0.002,0 l -0.02344,0.0234 -0.03125,0.0312 -0.05664,0.0566 c -0.0027,0.003 -0.0051,0.005 -0.0078,0.008 l -0.921875,0.92383 -1.033203,1.03125 -0.04102,0.043 -0.04687,0.0449 -1.05664,1.05664 -0.839844,0.8418 -0.291016,0.29101 -1.162109,1.16211 -0.550781,0.55078 -0.0039,0.002 -0.0039,0.004 -0.0039,0.004 -0.40625,0.40625 -0.222656,0.22265 -0.939453,0.94141 -0.28125,0.2793 c -0.0037,0.004 -0.0061,0.008 -0.0098,0.0117 l -0.183594,0.18359 -1.056641,1.05469 c -0.0037,0.004 -0.0061,0.008 -0.0098,0.0117 l -0.996094,0.99609 -0.002,0.002 -0.0039,0.002 -0.002,0.002 -0.0039,0.004 -0.179687,0.17968 -0.08203,0.082 -1.308593,1.3086 -0.53125,0.5332 -0.8066406,0.80469 c -0.00371,0.004 -0.00608,0.008 -0.00977,0.0117 l -1.3574219,1.35742 -0.064453,0.0645 -1.3320313,1.33203 -0.4414063,0.44141 -0.048828,0.0488 -0.046875,0.0469 -0.00977,0.01 -0.00586,0.004 -0.00195,0.002 -0.00195,0.002 -0.00391,0.004 -0.033203,0.0332 -0.03125,0.0312 -0.039063,0.0391 -0.050781,0.0508 c -0.00342,0.003 -0.00635,0.006 -0.00977,0.01 l -0.6816406,0.68164 -0.021484,0.0215 -1.2890625,1.29102 -0.1660156,0.16406 c -0.00371,0.004 -0.00608,0.008 -0.00977,0.0117 l -0.021484,0.0215 -1.453125,1.45312 -0.76757808,0.76758 -0.7480469,0.74609 c -0.003711,0.004 -0.006078,0.008 -0.009766,0.0117 l -1.49218752,1.49219 -0.041016,0.041 -1.5742187,1.57227 c -0.00371,0.004 -0.00608,0.008 -0.00977,0.0117 l -0.6542969,0.6543 -0.9394531,0.9375 c -0.00372,0.004 -0.00607,0.008 -0.00977,0.0117 l -1.359375,1.35938 -0.2617187,0.26172 -1.6621095,1.66016 c -0.00371,0.004 -0.00608,0.008 -0.00976,0.0117 l -0.404297,0.4043 -1.2773436,1.27539 c -0.0037,0.004 -0.0061,0.008 -0.0098,0.0117 l -1.0800782,1.08008 -0.630859,0.6289 c -0.0037,0.004 -0.0061,0.008 -0.0098,0.0117 l -1.738281,1.73828 -0.01758,0.0176 -1.761719,1.76172 -0.654297,0.6543 -0.002,0.002 -0.002,0.002 -0.002,0.002 -0.0039,0.002 c 0,0 -0.002,0.002 -0.002,0.002 l -1.142578,1.14454 -0.541015,0.53906 -0.300782,0.30273 -0.101562,0.10156 -0.369141,0.36915 -0.527344,0.52539 c -0.003,0.003 -0.0048,0.007 -0.0078,0.01 l -1.859375,1.85742 c -0.0037,0.004 -0.0061,0.008 -0.0098,0.0117 l -0.222656,0.22266 -1.664062,1.66211 c -0.0037,0.004 -0.0061,0.008 -0.0098,0.0117 l -0.324219,0.32422 -0.0957,0.0957 -0.08398,0.084 -0.06836,0.0684 -0.04883,0.0488 -0.03125,0.0312 -0.0039,0.002 -0.002,0.002 -0.002,0.002 -0.01172,0.0117 -0.01758,0.0176 c -0.0034,0.003 -0.0064,0.006 -0.0098,0.01 l -1.068359,1.07031 -0.148438,0.14844 -1.326171,1.32617 -0.628907,0.62891 -1.935547,1.93555 -0.05078,0.0488 -1.857422,1.85938 -0.15625,0.15625 -0.546875,0.54687 -1.498047,1.4961 c -0.0037,0.004 -0.0061,0.008 -0.0098,0.0117 l -1.115235,1.11523 -0.947265,0.94727 -1.72461,1.72265 -0.378906,0.37891 -1.86914,1.87109 -0.263672,0.26172 c -0.0037,0.004 -0.0061,0.008 -0.0098,0.0117 l -0.167969,0.16797 -1.982422,1.98242 -0.738281,0.73828 -1.453125,1.45313 -1.296875,1.29687 -0.863281,0.86328 -0.06055,0.0586 c -0.0037,0.004 -0.0061,0.008 -0.0098,0.0117 l -1.085937,1.08593 -0.34375,0.34375 -0.07031,0.0703 -0.01367,0.0137 -0.01562,0.0137 -0.002,0.002 -0.002,0.002 -0.0039,0.004 -0.0059,0.006 -0.08398,0.084 -0.210937,0.21093 c -0.0027,0.003 -0.0051,0.005 -0.0078,0.008 l -0.394531,0.39453 -2.279297,2.2793 -0.134765,0.13476 -2.173829,2.17383 -0.664062,0.66406 -1.589844,1.5918 -0.08398,0.082 c -0.0037,0.004 -0.0061,0.008 -0.0098,0.0117 l -1.183594,1.18359 -1.173828,1.17188 c -0.0037,0.004 -0.0061,0.008 -0.0098,0.0117 l -1.712891,1.71289 -0.673828,0.67382 -2.251953,2.25196 -0.173828,0.17383 -2.457032,2.45507 c -0.0017,0.002 -0.0022,0.004 -0.0039,0.006 l -2.480469,2.47852 c -0.0037,0.004 -0.0061,0.008 -0.0098,0.0117 l -1.830078,1.83008 -0.673828,0.67382 -0.220704,0.22071 -2.324218,2.32226 c -0.0037,0.004 -0.0061,0.008 -0.0098,0.0117 l -2.5625,2.5625 -2.603516,2.60156 c 0,0 -0.002,0.002 -0.002,0.002 l -2.630859,2.63086 c -0.0037,0.004 -0.0061,0.008 -0.0098,0.0117 l -2.65039,2.6504 -2.689049,2.68516 c 0,0 -0.002,0.002 -0.002,0.002 l -2.71875,2.71875 c 0,0 0,0.002 0,0.002 l -2.75,2.74805 c 0,0 0,0.002 0,0.002 l -2.779297,2.77735 -2.808593,2.80859 -2.837896,2.83789 -2.867184,2.86719 -2.89649,2.89648 c -0.004,0.004 -0.006,0.008 -0.01,0.0117 l -2.91602,2.91602 c -0.60877,0.60877 -0.91406,1.34712 -0.91406,2.2168 0,0.69574 0.30528,1.34825 0.91406,1.95703 l 4.17383,4.17383 c 0.60878,0.60878 1.30518,0.95596 2.08789,1.04296 0.78272,-0.087 1.479124,-0.43419 2.087894,-1.04296 l 2.085939,-2.0879 4.175781,4.17579 c 4.957175,4.95717 10.957548,7.82665 18.001953,8.60937 7.044404,0.60877 13.435895,-0.99958 19.175781,-4.82617 l 12.916016,12.91406 8.347656,-8.34961 0.341797,-0.33984 v -0.002 l 2.583985,-2.58399 2.898437,-2.89648 0.164063,-0.16407 2.703124,-2.70312 0.07617,-0.0762 2.75,-2.75 0.01172,-0.0117 2.708985,-2.70899 0.09961,-0.0996 2.589844,-2.59179 0.189453,-0.1875 2.472656,-2.47266 v -0.002 l 0.275391,-0.27539 2.355468,-2.35547 h 0.002 l 0.363282,-0.36524 1.9472654,-1.94531 0.2910156,-0.29297 0.453125,-0.45117 2.1210938,-2.12109 0.5410156,-0.54102 2.0019531,-2.0039 0.6289063,-0.62891 1.2304687,-1.23047 0.3652344,-0.36523 0.9296875,-0.92969 0.078125,-0.0762 1.76757812,-1.76758 v -0.002 l 0.80468748,-0.80469 1.1816406,-1.18164 0.46875,-0.46875 0.8945313,-0.89258 1.53125,-1.5332 0.1601562,-0.16016 0.8222657,-0.82226 0.2050781,-0.20508 1.2363281,-1.23438 0.00391,-0.004 2.337891,-2.3379 1.158203,-1.1582 1.179687,-1.17969 1.246094,-1.24609 1.0625,-1.0625 v -0.002 l 1.333985,-1.33399 0.943359,-0.94336 h 0.002 l 1.421875,-1.42382 0.826172,-0.82618 h 0.002 l 1.509766,-1.51172 0.708984,-0.70898 1.59961,-1.59961 0.591796,-0.5918 1.6875,-1.6875 0.47461,-0.47265 v -0.002 l 1.77539,-1.77539 0.355469,-0.35546 h 0.002 l 1.06836,-1.07032 0.632812,-0.63086 0.16211,-0.16211 0.238281,-0.24023 1.953125,-1.95117 0.121094,-0.1211 2.041015,-2.04101 0.002,-0.004 0.859375,-0.85742 1.154297,-1.15625 h 0.002 l 0.113281,-0.11523 0.839844,-0.83985 0.529297,-0.52929 0.554688,-0.55274 0.179687,-0.17969 1.722656,-1.72461 0.34961,-0.3496 0.03711,-0.0371 0.761719,-0.75977 0.779297,-0.7793 0.466797,-0.46679 1.427734,-1.42969 h 0.002 l 0.583985,-0.58594 0.830078,-0.83008 0.425781,-0.42382 0.02734,-0.0273 0.09375,-0.0937 1.74414,-1.74414 0.820313,-0.82031 1.925781,-1.92774 0.841797,-0.83984 v -0.002 l 1.054687,-1.05469 1.869141,-1.86719 0.546875,-0.54687 1.291016,-1.29102 0.40039,-0.40039 1.408203,-1.4082 0.251954,-0.25391 1.527343,-1.52539 0.105469,-0.10547 1.603516,-1.60351 0.04102,-0.041 1.53125,-1.5332 0.1875,-0.1875 1.355469,-1.35547 h 0.002 l 0.333985,-0.33594 0.8125,-0.8125 0.304687,-0.30469 0.0625,-0.0625 0.359375,-0.35937 0.0059,-0.006 0.117188,-0.11523 1.003906,-1.00391 0.628906,-0.62891 0.826172,-0.82617 0.08203,-0.082 0.69336,-0.69531 0.49414,-0.49414 0.15625,-0.15625 0.46875,-0.46875 0.257813,-0.25782 0.01758,-0.0176 0.179688,-0.17774 0.472656,-0.47461 0.0039,-0.004 1.066406,-1.06641 0.296875,-0.29688 h 0.002 l 0.162109,-0.16406 0.08203,-0.082 0.31836,-0.31641 0.02344,-0.0234 0.630859,-0.63086 0.121094,-0.1211 0.539063,-0.53906 0.824218,-0.82617 0.410157,-0.41016 0.173828,-0.17187 0.01367,-0.0137 0.05664,-0.0566 0.501953,-0.50196 0.06836,-0.0684 0.232422,-0.23242 1.017578,-1.01758 0.408203,-0.4082 0.8125,-0.8125 0.583984,-0.58398 0.605469,-0.60743 0.05664,-0.0547 0.705078,-0.70703 0.40039,-0.4004 0.9375,-0.9375 0.195313,-0.19336 v -0.002 l 1.101562,-1.10156 h 0.002 l 0.0098,-0.0117 1.0625,-1.06055 v -0.002 l 0.216797,-0.2168 0.826172,-0.82617 h 0.002 l 0.421875,-0.42383 0.591797,-0.58984 v -0.002 l 0.628906,-0.62891 0.355469,-0.35547 h 0.002 l 0.01367,-0.0156 0.117187,-0.11524 0.002,-0.002 0.507813,-0.50781 0.314453,-0.31446 0.925781,-0.92773 0.115235,-0.11328 0.78125,-0.78321 0.351562,-0.3496 1.101563,-1.10352 0.115234,-0.11523 0.03711,-0.0371 0.01758,-0.0176 0.06445,-0.0625 0.0078,-0.008 0.01172,-0.0117 0.808594,-0.8086 0.01172,-0.0117 0.767578,-0.76757 v -0.002 l 0.27539,-0.27539 0.216797,-0.21679 0.238281,-0.23829 0.109375,-0.10742 0.002,-0.002 0.04492,-0.0449 0.101563,-0.10156 0.302734,-0.30274 0.179688,-0.17969 0.123047,-0.12304 0.566406,-0.56836 h 0.002 l 0.113281,-0.11524 0.251953,-0.25195 0.113282,-0.11133 0.0059,-0.006 0.01953,-0.0195 0.04102,-0.041 0.115234,-0.11718 0.07422,-0.0723 0.216797,-0.21679 0.341797,-0.3418 0.603515,-0.60352 0.09961,-0.0996 0.472656,-0.47461 0.423828,-0.42187 0.121094,-0.12109 0.316406,-0.31641 0.197266,-0.19922 0.134758,-0.13477 0.0977,-0.0977 0.25391,-0.25195 v -0.002 l 0.45508,-0.45508 0.1289,-0.1289 0.20703,-0.20703 0.0899,-0.0898 h 0.002 l 0.0996,-0.10156 0.0156,-0.0156 0.006,-0.006 0.002,-0.002 0.0293,-0.0273 0.0312,-0.0312 0.0742,-0.0742 0.13867,-0.13867 0.11524,-0.11524 0.25195,-0.25195 0.33789,-0.33984 0.18946,-0.1875 0.11914,-0.1211 0.0547,-0.0527 0.22461,-0.22656 0.0664,-0.0645 0.0352,-0.0371 0.002,-0.002 0.14648,-0.14648 0.0293,-0.0293 0.0703,-0.0703 0.1211,-0.1211 0.1914,-0.1914 0.16211,-0.16016 v -0.002 l 0.13281,-0.13086 v -0.002 l 0.10157,-0.10156 h 0.002 l 0.01,-0.0117 0.0625,-0.0625 0.043,-0.043 h 0.002 l 0.58398,-0.58594 0.13867,-0.13867 0.125,-0.125 0.0215,-0.0215 0.0137,-0.0137 0.008,-0.008 0.006,-0.006 0.004,-0.004 0.004,-0.002 0.0137,-0.0137 0.0566,-0.0566 0.15039,-0.15039 0.12109,-0.1211 0.63281,-0.63281 0.0566,-0.0566 v -0.002 l 0.002,-0.002 0.54297,-0.54297 0.125,-0.125 0.1289,-0.1289 0.0117,-0.0117 0.006,-0.006 0.004,-0.004 0.002,-0.002 0.004,-0.002 0.0293,-0.0293 0.0547,-0.0547 0.13086,-0.13086 0.0781,-0.0781 0.54493,-0.54492 0.51367,-0.51368 0.48633,-0.48632 0.45507,-0.45508 0.0996,-0.10157 0.002,-0.002 0.002,-0.002 0.002,-0.002 0.32032,-0.32032 0.11523,-0.11523 0.004,-0.004 0.006,-0.006 0.004,-0.002 0.0293,-0.0293 0.0488,-0.0488 0.0547,-0.0547 0.0547,-0.0547 0.0469,-0.0469 0.0352,-0.0352 0.36719,-0.36719 0.33789,-0.33789 0.30859,-0.30859 0.2793,-0.2793 0.25,-0.25 0.2207,-0.2207 0.19141,-0.19141 0.16211,-0.16211 0.13086,-0.13281 0.10352,-0.10352 0.002,-0.002 0.0723,-0.0703 0.043,-0.0449 -12.916798,-12.911477 c 3.826588,-5.739886 5.393008,-12.089437 4.697268,-19.046875 -0.69575,-7.131372 -3.5233,-13.175636 -8.480471,-18.132812 l -4.173829,-4.173828 0.322266,-0.322266 c 0,0 0.002,-0.002 0.002,-0.002 l 0.306641,-0.306641 c 0,0 0.002,-0.002 0.002,-0.002 l 0.277344,-0.277344 c 0,0 0.002,-0.002 0.002,-0.002 l 0.248047,-0.248047 c 0,0 0.002,-0.002 0.002,-0.002 l 0.21875,-0.21875 0.191406,-0.191406 0.162109,-0.16211 c 0.0045,-0.0045 0.0073,-0.0092 0.01172,-0.01367 l 0.119141,-0.119141 0.0098,-0.0098 0.09375,-0.0918 0.07422,-0.07422 c 0.0045,-0.0045 0.0073,-0.0092 0.01172,-0.01367 l 0.03125,-0.03125 c 0.60855,-0.608551 0.913836,-1.259109 0.913836,-1.954854 0,-0.869679 -0.305286,-1.609974 -0.914062,-2.21875 L 89.61924,39.494141 c -0.608776,-0.608776 -1.30518,-0.870174 -2.087891,-0.783203 -0.195678,-0.02174 -0.385505,-0.02174 -0.570312,0 z"
       id="path1045"
       inkscape:connector-curvature="0"
       clip-path="url(#clipPath1492)"
       inkscape:export-filename="./icon.png"
       inkscape:export-xdpi="299"
       inkscape:export-ydpi="299" />
    <path
       inkscape:connector-curvature="0"
       id="path842"
       style="font-style:normal;font-variant:normal;font-weight:900;font-stretch:normal;font-size:72.56623077px;line-height:0;font-family:'Font Awesome 5 Free';-inkscape-font-specification:'Font Awesome 5 Free, Heavy';font-variant-ligatures:normal;font-variant-caps:normal;font-variant-numeric:normal;font-feature-settings:normal;text-align:start;letter-spacing:0px;word-spacing:0px;writing-mode:lr-tb;text-anchor:start;fill:#ffffff;fill-opacity:1;stroke:none;stroke-width:2.36143279"
       d="M 62.499013,29.042745 75.0224,41.566132 66.673475,49.915058 54.150088,37.39167 q -1.695876,-1.695875 -1.695877,-4.044011 0,-2.609039 1.695876,-4.304914 1.695875,-1.695876 4.174463,-1.565424 2.478587,-0.130452 4.174463,1.565424 z m 22.959543,10.436156 q 0.913163,-0.913164 2.087232,-0.782712 1.174067,-0.130452 2.087231,0.782712 l 4.174462,4.174462 q 0.913165,0.913164 0.913164,2.217683 0,1.043617 -0.913164,1.95678 l -2.087231,2.087231 4.174462,4.174463 q 7.435758,7.435763 8.479378,18.132821 1.04361,10.436156 -4.696271,19.045985 L 112.59256,104.18307 104.24363,112.532 91.328893,99.617251 q -8.609829,5.739889 -19.176436,4.826729 -10.566607,-1.17407 -18.00237,-8.609835 l -4.174462,-4.174462 -2.087232,2.087231 q -0.913163,0.913163 -2.087231,1.043616 -1.174067,-0.130453 -2.087231,-1.043617 l -4.174462,-4.174462 q -0.913164,-0.913164 -0.913164,-1.956778 0,-1.304521 0.913163,-2.217685 z M 37.452237,54.08952 49.975625,66.612908 41.626699,74.961832 29.103312,62.438446 q -1.695875,-1.695876 -1.695875,-4.044012 0,-2.609039 1.695875,-4.304914 1.695875,-1.695876 4.174462,-1.565424 2.478588,-0.130451 4.174463,1.565424 z"
       clip-path="url(#clipPath1488)"
       inkscape:export-filename="./icon.png"
       inkscape:export-xdpi="299"
       inkscape:export-ydpi="299" />
  </g>
</svg>
